HIERARCHY
ROOT hip
{
  OFFSET 0 0 0
  CHANNELS 6 Xposition Yposition Zposition Zrotation Yrotation Xrotation
  JOINT abdomen
  {
    OFFSET 0 20.6881 -0.73152
    CHANNELS 3 Zrotation Xrotation Yrotation
    JOINT chest
    {
      OFFSET 0 11.7043 -0.48768
      CHANNELS 3 Zrotation Xrotation Yrotation
      JOINT neck
      {
        OFFSET 0 22.1894 -2.19456
        CHANNELS 3 Zrotation Xrotation Yrotation
        JOINT head
        {
          OFFSET -0.24384 7.07133 1.2192
          CHANNELS 3 Zrotation Xrotation Yrotation
          JOINT leftEye
          {
            OFFSET 4.14528 8.04674 8.04672
            CHANNELS 3 Zrotation Xrotation Yrotation
            End Site
            {
              OFFSET 1 0 0
            }
          }
          JOINT rightEye
          {
            OFFSET -3.6576 8.04674 8.04672
            CHANNELS 3 Zrotation Xrotation Yrotation
            End Site
            {
              OFFSET 1 0 0
            }
          }
        }
      }
      JOINT rCollar
      {
        OFFSET -2.68224 19.2634 -4.8768
        CHANNELS 3 Zrotation Xrotation Yrotation
        JOINT rShldr
        {
          OFFSET -8.77824 -1.95073 1.46304
          CHANNELS 3 Zrotation Xrotation Yrotation
          JOINT rForeArm
          {
            OFFSET -28.1742 -1.7115 0.48768
            CHANNELS 3 Zrotation Xrotation Yrotation
            JOINT rHand
            {
              OFFSET -22.5879 0.773209 7.07136
              CHANNELS 3 Zrotation Xrotation Yrotation
              JOINT rThumb1
              {
                OFFSET -1.2192 -0.487915 3.41376
                CHANNELS 3 Zrotation Xrotation Yrotation
                JOINT rThumb2
                {
                  OFFSET -3.37035 -0.52449 3.41376
                  CHANNELS 3 Zrotation Xrotation Yrotation
                  End Site
                  {
                    OFFSET -1.78271 -1.18214 1.43049
                  }
                }
              }
              JOINT rIndex1
              {
                OFFSET -7.75947 0.938293 5.60832
                CHANNELS 3 Zrotation Xrotation Yrotation
                JOINT rIndex2
                {
                  OFFSET -2.54057 -0.884171 1.56538
                  CHANNELS 3 Zrotation Xrotation Yrotation
                  End Site
                  {
                    OFFSET -1.62519 -0.234802 1.16502
                  }
                }
              }
              JOINT rMid1
              {
                OFFSET -8.24714 1.18213 3.41376
                CHANNELS 3 Zrotation Xrotation Yrotation
                JOINT rMid2
                {
                  OFFSET -3.10165 -0.590103 1.0647
                  CHANNELS 3 Zrotation Xrotation Yrotation
                  End Site
                  {
                    OFFSET -2.48547 -0.328903 0.83742
                  }
                }
              }
              JOINT rRing1
              {
                OFFSET -8.82822 0.546677 1.51678
                CHANNELS 3 Zrotation Xrotation Yrotation
                JOINT rRing2
                {
                  OFFSET -2.60934 -0.819778 -0.0198488
                  CHANNELS 3 Zrotation Xrotation Yrotation
                  End Site
                  {
                    OFFSET -2.33842 -0.294052 0.168128
                  }
                }
              }
              JOINT rPinky1
              {
                OFFSET -8.27202 -0.0477905 -0.4584
                CHANNELS 3 Zrotation Xrotation Yrotation
                JOINT rPinky2
                {
                  OFFSET -1.82734 -0.647385 -0.700984
                  CHANNELS 3 Zrotation Xrotation Yrotation
                  End Site
                  {
                    OFFSET -1.69225 -0.51767 -0.607171
                  }
                }
              }
            }
          }
        }
      }
      JOINT lCollar
      {
        OFFSET 2.68224 19.2634 -4.8768
        CHANNELS 3 Zrotation Xrotation Yrotation
        JOINT lShldr
        {
          OFFSET 8.77824 -1.95073 1.46304
          CHANNELS 3 Zrotation Xrotation Yrotation
          JOINT lForeArm
          {
            OFFSET 28.1742 -1.7115 0.48768
            CHANNELS 3 Zrotation Xrotation Yrotation
            JOINT lHand
            {
              OFFSET 22.5879 0.773209 7.07136
              CHANNELS 3 Zrotation Xrotation Yrotation
              JOINT lThumb1
              {
                OFFSET 1.2192 -0.487915 3.41376
                CHANNELS 3 Zrotation Xrotation Yrotation
                JOINT lThumb2
                {
                  OFFSET 3.37035 -0.52449 3.41376
                  CHANNELS 3 Zrotation Xrotation Yrotation
                  End Site
                  {
                    OFFSET 1.78271 -1.18214 1.43049
                  }
                }
              }
              JOINT lIndex1
              {
                OFFSET 7.75947 0.938293 5.60832
                CHANNELS 3 Zrotation Xrotation Yrotation
                JOINT lIndex2
                {
                  OFFSET 2.54057 -0.884171 1.56538
                  CHANNELS 3 Zrotation Xrotation Yrotation
                  End Site
                  {
                    OFFSET 1.62519 -0.234802 1.16502
                  }
                }
              }
              JOINT lMid1
              {
                OFFSET 8.24714 1.18213 3.41376
                CHANNELS 3 Zrotation Xrotation Yrotation
                JOINT lMid2
                {
                  OFFSET 3.10165 -0.590103 1.0647
                  CHANNELS 3 Zrotation Xrotation Yrotation
                  End Site
                  {
                    OFFSET 2.48547 -0.328903 0.83742
                  }
                }
              }
              JOINT lRing1
              {
                OFFSET 8.82822 0.546677 1.51678
                CHANNELS 3 Zrotation Xrotation Yrotation
                JOINT lRing2
                {
                  OFFSET 2.60934 -0.819778 -0.0198488
                  CHANNELS 3 Zrotation Xrotation Yrotation
                  End Site
                  {
                    OFFSET 2.33842 -0.294052 0.168128
                  }
                }
              }
              JOINT lPinky1
              {
                OFFSET 8.27202 -0.0477905 -0.4584
                CHANNELS 3 Zrotation Xrotation Yrotation
                JOINT lPinky2
                {
                  OFFSET 1.82734 -0.647385 -0.700984
                  CHANNELS 3 Zrotation Xrotation Yrotation
                  End Site
                  {
                    OFFSET 1.69225 -0.51767 -0.607171
                  }
                }
              }
            }
          }
        }
      }
    }
  }
  JOINT rButtock
  {
    OFFSET -8.77824 4.35084 1.2192
    CHANNELS 3 Zrotation Xrotation Yrotation
    JOINT rThigh
    {
      OFFSET 0 -1.70687 -2.19456
      CHANNELS 3 Zrotation Xrotation Yrotation
      JOINT rShin
      {
        OFFSET 0 -36.8199 0.73152
        CHANNELS 3 Zrotation Xrotation Yrotation
        JOINT rFoot
        {
          OFFSET 0.73152 -45.1104 -5.12064
          CHANNELS 3 Zrotation Xrotation Yrotation
          End Site
          {
            OFFSET -1.1221 -3.69964 12.103
          }
        }
      }
    }
  }
  JOINT lButtock
  {
    OFFSET 8.77824 4.35084 1.2192
    CHANNELS 3 Zrotation Xrotation Yrotation
    JOINT lThigh
    {
      OFFSET 0 -1.70687 -2.19456
      CHANNELS 3 Zrotation Xrotation Yrotation
      JOINT lShin
      {
        OFFSET 0 -36.8199 0.73152
        CHANNELS 3 Zrotation Xrotation Yrotation
        JOINT lFoot
        {
          OFFSET -0.73152 -45.1104 -5.12064
          CHANNELS 3 Zrotation Xrotation Yrotation
          End Site
          {
            OFFSET 1.1221 -3.69964 12.103
          }
        }
      }
    }
  }
}
MOTION
Frames:	4
Frame Time:	0.00833333
-1.31046 84.9173 -119.571 0.0 0.0 0.0 -0.140625 -0.000295022 -0.00400523 -0.0387667 -0.000394562 -0.0067156 3.49186e-15 -7.95139e-16 -1.553e-18 1.04486e-14 3.18055e-15 0.0 -0.0 0.0 0.0 -0.0 0.0 0.0 1.7381e-15 3.88251e-19 1.49089e-16 3.85439e-14 1.80149e-16 9.93923e-16 6.29899e-13 -1.87653e-13 0.0 7.21436e-12 1.8979e-13 -3.18055e-15 1.70151e-11 8.96596e-16 0.0 2.93824e-11 -3.18055e-15 -7.15625e-15 1.70207e-11 3.57812e-15 -9.54166e-15 7.73091 5.47488 0.417314 1.70168e-11 1.78906e-15 -3.18055e-15 2.90554 0.965183 0.102902 1.70237e-11 1.68967e-15 -7.95139e-16 10.2786 0.731801 0.0259123 1.70168e-11 -2.38542e-15 9.54166e-15 2.22167 -0.733487 -0.20892 1.74075e-15 7.76503e-19 -1.49089e-16 3.42333e-14 1.86361e-16 -7.95139e-16 6.30147e-13 1.90436e-13 -1.27222e-14 7.21395e-12 -1.81689e-13 1.90833e-14 1.70207e-11 1.481e-14 0.0 2.93915e-11 1.90833e-14 1.59028e-15 1.70128e-11 1.78906e-14 9.54166e-15 -7.73091 5.47488 -0.417314 1.70195e-11 1.5207e-14 0.0 -2.90554 0.965183 -0.102902 1.7007e-11 1.56046e-14 3.18055e-15 -10.2786 0.731801 -0.0259123 1.70239e-11 1.51076e-14 -3.18055e-15 -2.22167 -0.733487 0.20892 -2.03217e-16 0.0 -3.88251e-19 0.415441 -2.89234 -0.0363692 -0.00657571 -0.313959 -0.0578447 -0.521673 3.20536 0.125417 2.03217e-16 0.0 3.88251e-19 -0.629363 -3.43714 0.0497314 0.00497797 0.672911 0.0432312 0.523155 2.76332 -0.116513
1.00544 83.3561 -120.854 7.9208 3.2656 3.1524 5.35061 4.31802 0.284736 1.45031 -1.0175 0.341641 1.774 -0.641801 -0.617469 -9.19945 1.28881 -1.49354 -0.0 0.0 0.0 -0.0 0.0 0.0 -3.62227e-14 9.36501e-15 1.61524e-14 10.6508 -10.1276 -3.22583 -4.32819 -1.98861 6.73621 0.00214949 -1.03183 -0.14493 -7.57736e-10 2.81445e-10 2.05632e-10 -1.31208e-09 4.87711e-10 3.5593e-10 -7.57732e-10 2.81448e-10 2.05623e-10 7.73091 5.47488 0.417314 -7.57735e-10 2.81446e-10 2.0563e-10 2.90554 0.965183 0.102902 -7.57726e-10 2.81447e-10 2.0563e-10 10.2786 0.731801 0.0259123 -7.57736e-10 2.81444e-10 2.05638e-10 2.22167 -0.733487 -0.20892 -3.6239e-14 9.37113e-15 1.58826e-14 -8.88275 -7.14305 3.43145 5.56255 -2.86839 -8.286 -0.0175083 -2.93584 0.41065 -6.79691e-10 -2.62454e-10 3.69418e-10 -1.17922e-09 -4.55423e-10 6.35439e-10 -6.79699e-10 -2.62452e-10 3.69429e-10 -7.73091 5.47488 -0.417314 -6.79691e-10 -2.62454e-10 3.6942e-10 -2.90554 0.965183 -0.102902 -6.79703e-10 -2.62454e-10 3.69421e-10 -10.2786 0.731801 -0.0259123 -6.79686e-10 -2.62453e-10 3.69413e-10 -2.22167 -0.733487 0.20892 -2.03217e-16 0.0 -3.88251e-19 -2.29554 -7.3589 -0.449504 0.0246959 8.59744 0.104151 -0.799204 -0.223189 -4.30103 2.03217e-16 0.0 3.88251e-19 -0.11491 -7.79428 1.78437 -0.0048245 10.4095 -0.108299 0.662216 1.24461 3.28333
0.909208 83.3648 -120.525 7.8046 3.1616 3.1103 11.1258 8.87842 0.602937 3.04113 -2.09601 0.713233 3.62809 -1.31959 -1.27692 -18.8602 2.66559 -3.0809 -0.0 0.0 0.0 -0.0 0.0 0.0 -7.80352e-14 1.96743e-14 3.31008e-14 20.6313 -20.7188 -6.97169 -8.39723 -3.99792 13.8805 -0.00127848 -2.13225 -0.299654 -1.63576e-09 5.93643e-10 4.2799e-10 -2.83231e-09 1.02874e-09 7.40813e-10 -1.63576e-09 5.93647e-10 4.27981e-10 7.73091 5.47488 0.417314 -1.63576e-09 5.93645e-10 4.27989e-10 2.90554 0.965183 0.102902 -1.63575e-09 5.93646e-10 4.27987e-10 10.2786 0.731801 0.0259123 -1.63576e-09 5.93645e-10 4.27993e-10 2.22167 -0.733487 -0.20892 -7.80719e-14 1.96852e-14 3.28616e-14 -17.311 -14.6031 7.23753 10.553 -5.70284 -17.1149 0.00996728 -6.03698 0.848092 -1.46251e-09 -5.50102e-10 7.73833e-10 -2.53708e-09 -9.54542e-10 1.33093e-09 -1.46251e-09 -5.50101e-10 7.73845e-10 -7.73091 5.47488 -0.417314 -1.46251e-09 -5.50102e-10 7.73835e-10 -2.90554 0.965183 -0.102902 -1.46252e-09 -5.50102e-10 7.73835e-10 -10.2786 0.731801 -0.0259123 -1.4625e-09 -5.50101e-10 7.73824e-10 -2.22167 -0.733487 0.20892 -2.03217e-16 0.0 -3.88251e-19 -5.25157 -12.0904 -0.916621 0.000589099 18.0134 0.286691 -1.66235 -3.80132 -8.97261 2.03217e-16 0.0 3.88251e-19 0.714778 -12.3615 3.6697 0.0442459 20.7282 -0.283467 1.00345 -0.347927 6.86966
0.809258 83.3728 -120.204 7.6943 3.0626 3.0681 16.1996 12.9533 0.882246 4.46561 -3.05127 1.03967 5.28049 -1.92451 -1.85334 -27.3966 3.8559 -4.48966 -0.0 0.0 0.0 -0.0 0.0 0.0 -1.12144e-13 2.80943e-14 4.81591e-14 28.103 -29.9669 -11.0137 -11.6084 -5.63668 20.2989 -0.00923099 -3.09541 -0.435355 -2.30724e-09 8.44333e-10 6.16896e-10 -3.995e-09 1.46314e-09 1.06781e-09 -2.30724e-09 8.44337e-10 6.16887e-10 7.73091 5.47488 0.417314 -2.30724e-09 8.44335e-10 6.16896e-10 2.90554 0.965183 0.102902 -2.30722e-09 8.44337e-10 6.16891e-10 10.2786 0.731801 0.0259123 -2.30724e-09 8.44337e-10 6.16895e-10 2.22167 -0.733487 -0.20892 -1.12199e-13 2.81118e-14 4.79459e-14 -23.9407 -21.1106 10.958 14.2659 -7.88675 -25.08 0.0749969 -8.80569 1.24501 -2.07311e-09 -7.87392e-10 1.10826e-09 -3.59643e-09 -1.36631e-09 1.90631e-09 -2.07312e-09 -7.87392e-10 1.10827e-09 -7.73091 5.47488 -0.417314 -2.07311e-09 -7.87392e-10 1.10826e-09 -2.90554 0.965183 -0.102902 -2.07312e-09 -7.87392e-10 1.10826e-09 -10.2786 0.731801 -0.0259123 -2.07311e-09 -7.8739e-10 1.10824e-09 -2.22167 -0.733487 0.20892 -2.03217e-16 0.0 -3.88251e-19 -7.91808 -16.2886 -1.31766 -0.0776588 26.4195 0.474152 -2.93738 -6.89547 -13.251 2.03217e-16 0.0 3.88251e-19 1.73482 -16.4497 5.42711 0.149149 29.8819 -0.46826 1.47858 -1.75909 10.0852
